PathFileType	4	(X/Y/Z)	Kaydara	
DataRate	CameraRate	NumFrames	NumMarkers	Units	OrigDataRate	OrigDataStartFrame	OrigNumFrames	
240.00	240.00	4	72	mm	240.00	311	355	
Frame#	Time	Hips			RightUpLeg			RightLeg			RightFoot			RightFoot_End			LeftUpLeg			LeftLeg			LeftFoot			LeftFoot_End			Spine			Spine1			Spine2			Spine3			Neck			Head			Head_End			RightShoulder			RightArm			RightForeArm			RightHand			RightHandThumb1			RightHandThumb2			RightHandThumb3			RightHandThumb3_End			RightInHandIndex			RightHandIndex1			RightHandIndex2			RightHandIndex3			RightHandIndex3_End			RightInHandMiddle			RightHandMiddle1			RightHandMiddle2			RightHandMiddle3			RightHandMiddle3_End			RightInHandRing			RightHandRing1			RightHandRing2			RightHandRing3			RightHandRing3_End			RightInHandPinky			RightHandPinky1			RightHandPinky2			RightHandPinky3			RightHandPinky3_End			LeftShoulder			LeftArm			LeftForeArm			LeftHand			LeftHandThumb1			LeftHandThumb2			LeftHandThumb3			LeftHandThumb3_End			LeftInHandIndex			LeftHandIndex1			LeftHandIndex2			LeftHandIndex3			LeftHandIndex3_End			LeftInHandMiddle			LeftHandMiddle1			LeftHandMiddle2			LeftHandMiddle3			LeftHandMiddle3_End			LeftInHandRing			LeftHandRing1			LeftHandRing2			LeftHandRing3			LeftHandRing3_End			LeftInHandPinky			LeftHandPinky1			LeftHandPinky2			LeftHandPinky3			LeftHandPinky3_End			
		X1	Y1	Z1	X2	Y2	Z2	X3	Y3	Z3	X4	Y4	Z4	X5	Y5	Z5	X6	Y6	Z6	X7	Y7	Z7	X8	Y8	Z8	X9	Y9	Z9	X10	Y10	Z10	X11	Y11	Z11	X12	Y12	Z12	X13	Y13	Z13	X14	Y14	Z14	X15	Y15	Z15	X16	Y16	Z16	X17	Y17	Z17	X18	Y18	Z18	X19	Y19	Z19	X20	Y20	Z20	X21	Y21	Z21	X22	Y22	Z22	X23	Y23	Z23	X24	Y24	Z24	X25	Y25	Z25	X26	Y26	Z26	X27	Y27	Z27	X28	Y28	Z28	X29	Y29	Z29	X30	Y30	Z30	X31	Y31	Z31	X32	Y32	Z32	X33	Y33	Z33	X34	Y34	Z34	X35	Y35	Z35	X36	Y36	Z36	X37	Y37	Z37	X38	Y38	Z38	X39	Y39	Z39	X40	Y40	Z40	X41	Y41	Z41	X42	Y42	Z42	X43	Y43	Z43	X44	Y44	Z44	X45	Y45	Z45	X46	Y46	Z46	X47	Y47	Z47	X48	Y48	Z48	X49	Y49	Z49	X50	Y50	Z50	X51	Y51	Z51	X52	Y52	Z52	X53	Y53	Z53	X54	Y54	Z54	X55	Y55	Z55	X56	Y56	Z56	X57	Y57	Z57	X58	Y58	Z58	X59	Y59	Z59	X60	Y60	Z60	X61	Y61	Z61	X62	Y62	Z62	X63	Y63	Z63	X64	Y64	Z64	X65	Y65	Z65	X66	Y66	Z66	X67	Y67	Z67	X68	Y68	Z68	X69	Y69	Z69	X70	Y70	Z70	X71	Y71	Z71	X72	Y72	Z72	

311	1.292	-78.98710000000028	906.651	56.2195	-96.64461000000028	854.3371899999999	-19.242149999999995	-152.8457900000003	441.59472	-61.79786000000001	-38.8792999999996	94.15704000000001	-195.73143	-110.12017999999989	13.631499999999999	-37.68400999999999	-56.336239999999634	930.09573	144.56561000000005	-101.44891000000007	532.34793	267.97686	-207.26024999999936	104.59852999999998	298.01097	-318.82351000000017	8.6316	176.01671	-101.2820499999998	1036.8066499999998	1.09531	-152.97987999999987	1110.8525600000003	-34.801460000000006	-213.55574999999953	1183.8729	-69.85915	-281.12464	1247.24641	-99.24431000000001	-353.98952999999983	1314.46756	-130.00019	-420.39855999999963	1376.41491	-156.62217000000004	-544.6293599999999	1473.2569099999998	-181.69375	-343.8962099999999	1269.7164700000003	-135.98804999999996	-425.0541200000007	1172.0209300000001	-137.42603000000003	-355.6308799999997	1104.51336	109.64531	-399.96601999999984	1067.08784	362.69047	-377.7900300000001	1089.1212	387.5838	-350.6820600000001	1083.15952	411.78863	-334.3101400000005	1075.5345600000003	429.90824	-322.80547000000024	1066.2066899999998	446.0945699999999	-385.7396199999994	1080.7169799999997	395.37581	-368.9588500000009	1079.89333	445.77358000000004	-351.93646999999964	1068.5041399999998	475.61498000000006	-337.6807000000008	1058.3797199999997	486.35651000000007	-323.4036699999997	1047.9466399999997	489.97861	-392.8857800000005	1070.7848999999999	396.80924000000005	-380.3852199999992	1064.6123499999999	446.7425500000001	-362.8011000000006	1050.86312	479.32458	-346.07742000000053	1038.0143	492.2929999999999	-330.6868599999998	1026.29036	496.2606800000001	-398.4300800000001	1063.8758500000001	396.60727999999995	-392.2368699999997	1052.6008800000002	441.39108	-377.9420199999995	1039.2752	469.72977	-362.3584899999996	1026.16892	482.207	-348.14707	1014.8077900000002	485.92251999999996	-404.77608000000055	1055.2516499999997	394.352	-403.22843999999986	1039.8850400000001	434.29291	-393.41745999999966	1027.1695099999997	456.69616	-382.8420699999997	1016.62059	465.65715000000006	-370.70845999999983	1005.9872000000001	468.86794	-314.39852000000064	1315.7346299999997	-103.47506999999999	-236.37570999999934	1390.2660899999998	-33.833220000000004	-169.91909000000032	1161.81656	81.97335999999999	-303.8359499999997	998.5037699999999	231.92341	-273.1055699999997	1020.92112	244.17198000000002	-250.40058000000045	1021.79559	273.15432	-234.4042300000001	1017.98157	292.75202999999993	-220.9108700000006	1011.0182200000002	308.58883999999995	-268.1739200000002	1008.15191	241.49460999999997	-219.26949999999943	1002.03346	261.32213	-192.98473000000013	992.27746	284.21132	-184.84150000000045	987.27192	302.3701699999999	-183.63115000000016	983.84367	320.05023000000006	-269.74231000000054	996.0736799999999	239.64389	-222.88853999999992	983.57436	257.97942	-194.58186999999998	971.3479099999998	282.6589200000001	-184.9374600000001	964.55037	304.4243200000001	-183.70067999999992	960.4304900000001	323.7002	-272.0087199999998	987.72223	237.73821	-231.7236300000004	969.3458799999999	252.24647999999996	-207.50980999999956	957.0930200000001	273.42563	-198.45045000000027	949.68856	294.2439900000001	-197.40293999999994	945.41313	312.28472999999997	-276.7436200000002	978.0715599999999	235.69364000000002	-242.39694000000054	955.3515299999999	247.43713	-223.89887	943.12953	263.81669	-217.72217	936.56271	278.72116	-217.04241999999977	932.10434	294.54087
312	1.296	-78.98710000000028	906.651	56.2195	-96.84198000000015	854.30441	-19.17295	-152.6536900000001	441.49505000000005	-61.59212	-38.45740999999998	94.28687	-195.92451	-109.60473999999977	13.730840000000002	-37.85049	-56.129839999999604	930.13282	144.50257	-101.1551499999996	532.4409600000001	268.12580999999994	-207.11047999999937	104.72709000000002	298.15826000000004	-318.62066999999934	8.738869999999999	176.13224999999997	-101.31638999999996	1036.78878	1.0670299999999995	-153.03711999999996	1110.8601599999997	-34.74413	-213.63077000000067	1183.91957	-69.68949	-281.2053599999999	1247.3527599999998	-98.93244000000001	-354.07474999999977	1314.6380400000003	-129.53706	-420.4813800000002	1376.64627	-156.02295000000004	-544.7086300000001	1473.4941900000001	-181.08925999999997	-344.06712999999945	1269.8639	-135.4964	-425.4743900000003	1172.37019	-136.45859999999996	-354.86654999999973	1106.37903	110.68671	-397.05695000000014	1073.57603	364.73801000000003	-374.4152100000001	1095.92422	388.92130999999995	-347.1407900000004	1090.2180099999998	413.00039000000004	-330.67688	1082.82703	431.1336	-319.11599000000024	1073.7421899999995	447.41779999999994	-382.3772400000007	1087.7818399999996	396.9742600000001	-365.12495000000035	1087.90898	447.2191700000001	-347.9378799999995	1077.0106400000002	477.14932999999996	-333.6865199999993	1066.9781999999998	487.9826299999999	-319.4852000000001	1056.4774400000001	491.70537	-389.6126599999998	1077.9610399999997	398.69743000000005	-376.7004200000001	1072.7761	448.63829999999996	-358.9500900000003	1059.57388	481.35616000000005	-342.23822999999993	1046.8414900000002	494.45399999999995	-326.93364999999994	1035.0461500000001	498.54088	-395.23045	1071.1086399999995	398.70272	-388.72742000000017	1060.77465	443.66925000000003	-374.30216999999993	1047.93581	472.16616999999997	-358.73772999999983	1034.9471699999997	484.78937999999994	-344.61081000000013	1023.5214300000001	488.62700000000007	-401.6873999999998	1062.5041499999998	396.70137	-399.91847999999936	1048.0207399999997	436.96184000000005	-390.0270300000002	1035.7066199999997	459.55316000000005	-379.47713999999996	1025.2490899999998	468.65031	-367.4250499999998	1014.5617000000001	471.9863499999999	-314.3929899999994	1315.8838299999998	-103.14688	-236.1319400000002	1390.82162	-34.212	-169.67929999999978	1162.36499	81.58284999999998	-303.50297000000046	1001.8934200000001	234.65117	-273.05627000000004	1024.85794	246.59062999999998	-250.15459999999985	1026.21173	275.39928	-233.95276999999987	1022.7330199999999	294.89028	-220.22947999999997	1016.05052	310.65033000000005	-267.93483000000015	1012.1619200000002	243.92158	-218.79061999999976	1006.9214	263.4046900000001	-192.1797200000001	997.6828699999999	286.13118	-183.82074999999986	992.8783499999998	304.24624000000006	-182.42306999999983	989.53507	321.92876	-269.3176199999998	1000.0528300000001	242.12527999999998	-222.1296199999997	988.39317	260.15428999999995	-193.4431800000002	976.72434	284.66464999999994	-183.5270099999998	970.16595	306.38125	-182.07967999999983	966.1374100000002	325.66176999999993	-271.46016000000054	991.65832	240.26606999999996	-230.77126999999928	974.0004	254.53777	-206.20251999999982	962.22504	275.57857	-196.86831999999958	955.04673	296.3546799999999	-195.6168200000002	950.85504	314.40207000000004	-276.05039000000033	981.92365	238.29100999999997	-241.24784999999974	959.81486	249.85772000000003	-222.42998999999963	947.9587799999999	266.14167000000003	-216.0356099999999	941.54896	281.02267	-215.16526000000067	937.1601900000001	296.85251
313	1.3	-78.98710000000028	906.651	56.2195	-97.05468999999994	854.2784200000001	-19.10419	-152.4657900000002	441.40234	-61.39896999999999	-38.04860000000008	94.42068999999998	-196.12813	-109.09349999999995	13.832460000000001	-38.02446	-55.91041000000041	930.16174	144.43776	-100.83690000000024	532.52486	268.27363999999994	-207.51243999999951	104.99484	298.37425	-318.9652499999993	8.99061	176.30842	-101.33990999999969	1036.7769700000001	1.0486899999999997	-153.07689000000028	1110.8577800000003	-34.71943999999999	-213.68454999999994	1183.9317300000002	-69.61008	-281.2672599999996	1247.3873199999998	-98.78558000000001	-354.14509999999973	1314.69617	-129.31818000000004	-420.55080999999973	1376.7344799999998	-155.73583	-544.8549499999999	1473.51286	-180.68925000000002	-344.2001300000002	1269.9011599999997	-135.22536	-425.8425299999999	1172.6008199999999	-135.72926	-354.1958999999997	1108.0374999999997	111.49421000000001	-394.2152100000003	1079.77077	366.44043	-371.1273200000005	1102.4159600000003	389.91522	-343.6781799999999	1096.96694	413.85495	-327.1121000000003	1089.8105900000003	431.98922000000005	-315.4827100000002	1080.9688599999997	448.35823999999997	-379.08932000000004	1094.52934	398.21883	-361.3529699999999	1095.57967	448.28406	-343.9838099999997	1085.1664499999997	478.28174	-329.72587999999996	1075.23237	489.19673	-315.59103999999934	1064.6759299999999	493.01386999999994	-386.40198000000055	1084.8199599999998	400.22426	-373.05933000000005	1080.5957799999999	450.14249	-355.1222600000001	1067.9344300000002	482.97210000000007	-338.40819999999985	1055.3262300000001	496.1867500000001	-323.17917000000034	1043.47266	500.38581	-392.0851499999999	1078.0248699999995	400.43219999999997	-385.24863000000005	1068.60792	445.5504099999999	-370.67353	1056.2507300000002	474.18368	-355.11384	1043.38732	486.94026999999994	-341.06119000000035	1031.9094000000005	490.89316	-398.6436100000001	1069.4427899999998	398.68026	-396.62607000000025	1055.8218	439.22902	-386.6362400000007	1043.9052999999997	461.98964	-376.1002700000008	1033.54489	471.21317000000005	-364.11999000000014	1022.8146	474.66805999999997	-314.39357999999993	1315.9459800000002	-103.03338	-235.91033999999945	1391.2553100000002	-34.75916	-169.46530000000075	1162.79879	81.04029	-303.2371899999998	1005.19233	237.10148000000004	-273.1100499999993	1028.70619	248.77948999999998	-250.07023000000027	1030.5513200000003	277.45037	-233.70175999999992	1027.4174599999997	296.86048	-219.77930000000015	1021.0247300000001	312.56595	-267.7929300000005	1016.0870899999999	246.12831	-218.45785999999953	1011.7402299999999	265.3471599999999	-191.56745000000046	1003.03311	287.95414000000005	-183.02635999999984	998.43776	306.0385	-181.47231999999985	995.18587	323.72501	-268.9838399999999	1003.9498799999999	244.38518	-221.50594	993.1466800000002	262.1851700000001	-192.48960999999963	982.05099	286.57307000000003	-182.34177999999974	975.7417300000001	308.25644	-180.7175500000003	971.81161	327.5431900000001	-270.99667000000045	995.5138099999999	242.56966	-229.9382800000003	978.5906199999998	256.67228	-205.0569999999998	967.3065800000002	277.61483	-195.48609000000033	960.3642099999998	298.36339999999996	-194.06196999999975	956.2629799999999	316.41877999999997	-275.43512999999984	985.69656	240.65742000000003	-240.20337999999992	964.2147900000001	252.10562999999996	-221.09789	952.7360800000001	268.32491000000005	-214.51277000000027	946.49058	283.19259	-213.47909999999956	942.17749	299.03340000000003
314	1.304	-78.98710000000028	906.651	56.2195	-97.27353000000039	854.25814	-19.03725	-152.28007999999954	441.31620000000004	-61.217029999999994	-37.65729999999985	94.55167000000002	-196.32987999999995	-108.59631999999965	13.931249999999999	-38.19508	-55.68591000000015	930.1839000000001	144.37282	-100.51388000000043	532.60175	268.41996	-208.16993000000002	105.32657	298.64778000000007	-319.5702200000005	9.3127	176.54158000000004	-101.35856999999942	1036.7697100000003	1.0391399999999997	-153.10869999999977	1110.85316	-34.70452000000001	-213.7285299999994	1183.93077	-69.56632000000002	-281.32040999999936	1247.39168	-98.70901	-354.2122900000004	1314.70433	-129.19965999999997	-420.6196	1376.7598900000003	-155.57276	-545.0547100000003	1473.4305	-180.29003000000003	-344.3179399999999	1269.8901900000003	-135.04638	-426.1791599999997	1172.77259	-135.10793999999999	-353.6160799999998	1109.5476	112.19411999999997	-391.43173000000024	1085.71454	367.92853000000014	-367.9159300000001	1108.6390599999997	390.69682000000006	-340.28323	1103.4470500000002	414.48199999999997	-323.60454000000027	1096.52445	432.60378000000003	-311.8942799999995	1087.9244100000003	449.04375999999996	-375.86578999999983	1101.0013999999999	399.24129	-357.63202999999976	1102.9449700000002	449.1007000000001	-340.0631000000003	1093.0088399999997	479.14383	-325.7875300000005	1083.1781199999998	490.1291299999999	-311.7099699999999	1072.5769000000003	494.03282	-383.24409000000014	1091.4029700000003	401.52157	-369.4517399999995	1088.11009	451.38767000000007	-351.3071400000008	1075.98091	484.3040500000001	-334.5768200000002	1063.50296	497.62137	-319.41291	1051.60308	501.92379999999997	-388.9848400000001	1084.66548	401.92762000000005	-381.79093999999986	1076.1390200000003	447.16717000000006	-367.04637	1064.25599	475.9141599999999	-351.47706000000017	1051.5236999999997	488.7900000000001	-337.4884999999995	1040.00484	492.84968	-395.6357799999996	1076.10812	400.42048	-393.3423300000004	1063.3261299999997	441.22691	-383.23617000000013	1051.80155	464.13750000000005	-372.70255	1041.54269	473.4765	-360.78444000000036	1030.77953	477.0424	-314.3996500000003	1315.96986	-103.00828999999999	-235.70812999999998	1391.6237999999998	-35.357659999999996	-169.25805000000037	1163.17048	80.44518	-302.9958399999996	1008.4292199999999	239.37647999999996	-273.22389999999996	1032.4941899999997	250.84079999999997	-250.09879999999976	1034.8363	279.40654	-233.59823999999935	1032.05264	298.75809999999996	-219.5034599999999	1025.95536	314.42731	-267.7042899999997	1019.95745	248.21286	-218.2223699999995	1016.5198899999999	267.23734999999994	-191.09338000000025	1008.3542599999998	289.76121	-182.39972000000034	1003.9715499999999	307.82563999999996	-180.71654000000035	1000.812	325.51707	-268.69609000000037	1007.79539	246.51889	-220.96730000000025	997.8657000000001	264.15588	-191.66467000000011	987.3545499999999	288.46026000000006	-181.3203199999998	981.29878	310.12302999999997	-179.54873000000043	977.46823	329.41683	-270.57289000000037	999.3196999999998	244.74258000000003	-229.17413000000033	983.14828	258.73178	-204.01717000000008	972.3658499999999	279.6091400000001	-194.24279000000024	965.66381	300.34188	-192.67353999999978	961.6542299999999	318.40581	-274.85188000000016	989.42152	242.88489	-239.21254000000044	968.58346	254.26105	-219.84696000000076	957.4908499999999	270.44049	-213.0944099999997	951.41313	285.3026	-211.92122999999992	947.1768799999999	301.15441999999996
